<?xml version="1.0" standalone="no"?>
<!DOCTYPE svg PUBLIC "-//W3C//DTD SVG 20010904//EN"
 "http://www.w3.org/TR/2001/REC-SVG-20010904/DTD/svg10.dtd">
<svg version="1.0" xmlns="http://www.w3.org/2000/svg"
 width="500.000000pt" height="500.000000pt" viewBox="0 0 500.000000 500.000000"
 preserveAspectRatio="xMidYMid meet">

<g transform="translate(0.000000,500.000000) scale(0.100000,-0.100000)"
fill="#000000" stroke="none">
<path d="M2200 4824 c-369 -52 -700 -176 -995 -372 -484 -322 -829 -805 -970
-1357 -59 -230 -70 -322 -70 -595 0 -273 11 -367 70 -595 141 -552 486 -1035
970 -1357 529 -352 1182 -472 1815 -332 428 95 853 332 1155 645 291 301 491
656 590 1044 59 230 70 322 70 595 0 273 -11 367 -70 595 -205 802 -851 1454
-1649 1666 -210 56 -330 71 -581 75 -165 2 -260 -1 -335 -12z m721 -38 c876
-167 1580 -811 1818 -1661 63 -224 75 -325 76 -620 0 -239 -3 -285 -23 -398
-56 -309 -158 -573 -325 -844 -173 -278 -452 -557 -730 -730 -271 -167 -535
-269 -844 -325 -114 -21 -157 -23 -403 -22 -256 0 -285 2 -411 27 -958 187
-1678 907 -1866 1866 -25 128 -27 152 -27 421 0 269 2 293 27 421 199 1012
998 1761 2015 1889 37 5 177 7 312 6 215 -3 262 -7 381 -30z"/>
<path d="M2485 4743 c-88 -24 -134 -160 -87 -253 52 -104 215 -109 268 -8 38
72 14 206 -42 243 -26 17 -106 27 -139 18z m118 -84 c44 -60 18 -170 -47 -193
-91 -33 -153 111 -84 199 17 22 27 26 66 23 35 -2 49 -9 65 -29z"/>
<path d="M2780 4598 c-13 -68 -24 -139 -24 -158 -1 -30 2 -35 25 -38 24 -3 26
1 37 59 6 34 13 63 14 65 2 1 32 -4 68 -11 66 -14 79 -10 80 23 0 15 -6 17
-83 32 l-58 12 7 31 c3 18 8 35 10 38 2 3 34 0 71 -7 91 -18 93 -18 93 11 0
14 -2 25 -4 25 -3 0 -35 6 -73 14 -37 8 -84 17 -104 20 l-37 6 -22 -122z"/>
<path d="M1990 4683 c-58 -14 -108 -28 -112 -32 -6 -6 56 -289 66 -299 5 -5
128 19 200 39 28 8 32 13 28 34 -2 14 -5 25 -6 25 0 0 -35 -9 -76 -20 -41 -11
-80 -20 -87 -20 -13 0 -36 70 -27 79 3 3 35 13 72 21 50 11 68 20 70 34 6 31
-11 35 -86 19 -40 -9 -74 -14 -76 -12 -2 2 -7 18 -10 35 l-7 31 81 18 c45 10
82 21 84 24 2 3 0 16 -3 27 l-6 21 -105 -24z"/>
<path d="M1625 4571 c-77 -47 -95 -120 -52 -213 41 -91 111 -125 193 -93 54
20 84 62 84 118 0 41 1 41 -34 27 -20 -7 -26 -17 -26 -39 0 -36 -31 -61 -77
-61 -40 0 -76 43 -94 113 -12 43 -11 49 7 74 24 33 74 42 107 20 16 -10 28
-11 45 -4 31 14 28 34 -10 57 -41 25 -104 26 -143 1z"/>
<path d="M3231 4454 c-34 -75 -60 -141 -59 -146 6 -17 153 -78 190 -78 28 0
42 7 62 31 27 32 34 77 15 96 -8 8 -3 15 17 24 35 18 50 60 34 99 -9 23 -31
38 -97 70 -46 22 -88 40 -92 40 -5 0 -36 -61 -70 -136z m186 29 c30 -12 19
-73 -13 -73 -12 0 -90 34 -102 45 -2 2 4 17 13 34 l16 31 37 -16 c20 -9 42
-18 49 -21z m-32 -133 c11 -18 -4 -58 -24 -65 -15 -4 -105 25 -119 40 -2 2 6
22 18 44 l20 41 50 -25 c27 -13 52 -29 55 -35z"/>
<path d="M1376 4437 c-17 -12 -15 -18 32 -92 28 -44 49 -81 47 -84 -3 -2 -50
17 -105 43 -100 47 -125 51 -150 21 -9 -10 7 -41 74 -144 80 -123 87 -131 106
-119 11 7 20 17 20 22 0 5 -23 45 -51 89 -27 43 -48 81 -46 83 2 2 53 -19 112
-47 91 -42 113 -49 132 -40 13 6 23 15 23 20 0 14 -155 254 -166 258 -6 2 -18
-3 -28 -10z"/>
<path d="M3535 4299 c-47 -72 -85 -132 -83 -134 26 -20 189 -125 195 -125 5 0
14 9 20 19 12 20 14 18 -130 112 -9 6 27 79 39 79 3 0 32 -18 64 -40 32 -22
63 -40 67 -40 5 0 14 9 20 19 11 17 5 24 -52 61 -36 23 -65 45 -65 49 0 12 31
51 41 51 6 0 37 -18 69 -40 66 -45 75 -47 89 -23 8 15 -6 27 -85 80 -51 35
-96 63 -98 63 -3 0 -44 -59 -91 -131z"/>
<path d="M2251 4314 c-556 -76 -1045 -404 -1335 -896 -342 -582 -326 -1333 40
-1901 255 -396 645 -678 1092 -791 462 -117 965 -48 1367 189 646 380 996
1088 900 1822 -98 742 -640 1354 -1363 1537 -212 54 -483 69 -701 40z m605
-38 c203 -43 391 -116 567 -220 93 -55 190 -124 198 -140 2 -4 -97 -9 -221
-10 l-225 -2 -35 -36 c-78 -79 -248 -76 -316 5 l-26 31 -298 1 -299 0 -28 -27
c-41 -40 -94 -58 -167 -58 -74 0 -108 12 -151 52 l-31 28 -224 5 c-124 3 -223
8 -221 12 7 16 135 104 222 154 174 99 371 172 564 208 157 29 160 29 375 26
162 -3 216 -8 316 -29z m-1466 -511 c26 -122 55 -319 72 -490 21 -208 17 -899
-5 -1105 -22 -198 -60 -428 -87 -528 -11 -40 -18 -77 -15 -82 6 -10 -15 -60
-26 -60 -4 0 -15 10 -23 22 -14 19 -13 23 4 46 26 32 25 49 -5 92 -14 20 -30
57 -35 81 l-9 44 4 -49 c3 -27 13 -58 22 -68 14 -16 14 -18 1 -18 -20 0 -83
-64 -111 -113 -11 -20 -25 -36 -30 -34 -6 2 -18 23 -28 47 -23 58 -24 43 -2
-21 17 -48 17 -49 -5 -69 -12 -11 -22 -23 -22 -27 0 -3 14 -30 31 -59 31 -55
65 -88 101 -99 21 -7 78 12 78 26 0 5 12 10 28 10 23 2 24 2 5 6 -22 4 -22 6
-8 39 8 19 28 54 46 78 23 33 29 50 24 66 -7 21 -5 22 31 17 28 -5 33 -4 19 3
-11 5 -30 9 -42 9 -13 1 -23 6 -23 11 0 6 105 10 295 10 l295 0 39 24 c66 42
154 74 262 96 138 29 389 24 513 -9 86 -23 209 -76 227 -97 9 -11 73 -14 320
-14 170 0 309 2 309 4 0 2 -11 51 -24 108 -137 589 -137 1523 0 2125 22 99 28
112 42 104 9 -5 59 -51 111 -103 263 -262 430 -569 508 -937 25 -115 27 -145
27 -351 0 -206 -2 -236 -27 -351 -77 -362 -244 -673 -498 -928 -253 -253 -566
-421 -928 -498 -115 -25 -145 -27 -351 -27 -206 0 -236 2 -351 27 -362 77
-673 244 -928 498 -253 253 -421 566 -498 928 -25 114 -27 147 -27 346 -1 191
2 235 22 335 81 401 275 746 568 1012 78 70 70 76 104 -77z m1432 91 c76 -76
250 -76 326 0 l34 34 223 0 222 0 -18 -77 c-52 -213 -84 -474 -101 -816 l-12
-237 -260 2 -260 3 -13 69 c-35 193 -191 347 -381 379 -37 6 -70 16 -74 22
-10 13 -10 639 -1 648 3 4 68 7 144 7 l137 0 34 -34z m-437 -308 c-14 -68 -33
-161 -41 -208 -24 -134 -33 -160 -57 -169 -13 -5 -33 -4 -47 2 -26 10 -76 11
-122 1 l-28 -6 0 136 c0 131 -6 156 -31 140 -8 -5 -6 -10 5 -16 13 -8 16 -29
16 -139 l0 -130 -37 6 c-79 14 -73 2 -73 151 0 112 -2 134 -15 134 -8 0 -15
-4 -15 -10 0 -5 5 -10 10 -10 6 0 10 -48 10 -123 l0 -123 -45 -12 c-25 -7 -50
-12 -55 -12 -6 0 -10 56 -10 145 0 122 -2 145 -15 145 -17 0 -20 -16 -5 -25 6
-4 10 -60 10 -136 l0 -129 -27 6 c-16 3 -40 10 -56 14 -18 6 -40 4 -67 -5 -40
-14 -40 -14 -46 13 -13 51 -44 167 -73 272 -17 58 -30 111 -31 118 0 9 76 12
350 12 l350 0 0 45 0 44 83 3 c45 2 83 0 85 -4 2 -4 -8 -62 -23 -130z m214
-353 c325 -77 463 -458 261 -721 -130 -168 -376 -221 -563 -121 -158 84 -247
228 -247 402 0 178 97 332 254 406 105 49 188 59 295 34z m-466 -76 c31 1 57
-2 57 -6 0 -4 -14 -22 -32 -40 -34 -35 -56 -40 -106 -22 -26 9 -43 7 -97 -11
-66 -22 -67 -22 -161 -5 -88 16 -99 16 -144 1 -53 -17 -80 -19 -129 -10 -27 6
-31 10 -31 41 l0 34 53 -6 c38 -5 68 -2 106 11 46 15 62 16 111 6 75 -16 111
-15 151 3 25 11 52 14 99 9 36 -3 91 -5 123 -5z m-258 -156 c28 -3 67 -1 88 5
24 7 49 7 72 1 38 -11 40 -15 26 -51 -8 -22 -13 -23 -117 -22 -60 0 -135 4
-167 9 -44 6 -71 4 -116 -10 -44 -13 -70 -15 -112 -9 -52 9 -54 11 -57 42 l-3
32 83 -6 c63 -4 93 -2 123 10 26 10 56 14 85 10 25 -3 68 -7 95 -11z m-57
-134 c51 -17 68 -19 94 -10 31 11 111 15 120 6 2 -3 3 -18 0 -35 l-4 -30 -267
2 -266 3 0 35 c0 26 4 34 15 31 41 -12 99 -11 135 3 56 21 101 19 173 -5z
m220 -145 c33 -198 201 -369 387 -392 l60 -7 3 -287 2 -286 -67 -7 c-180 -17
-322 -57 -414 -115 l-46 -30 -296 0 c-232 0 -297 3 -297 13 0 6 11 62 25 122
52 233 83 509 91 815 3 118 7 221 10 228 2 9 65 12 267 12 l264 0 11 -66z
m562 -620 c0 -8 -5 -14 -11 -14 -6 0 -8 -11 -4 -28 4 -21 1 -33 -15 -47 -23
-21 -24 -15 -8 40 6 22 12 45 13 50 1 6 3 14 3 18 3 13 22 -3 22 -19z m165
-32 c-5 -41 -27 -84 -38 -71 -8 8 26 128 34 123 5 -2 6 -26 4 -52z m177 18
c-7 -11 -8 -21 -2 -25 12 -7 -8 -52 -26 -59 -17 -6 -17 6 -3 59 17 68 18 70
32 56 9 -9 9 -16 -1 -31z m348 -24 c-6 -40 -26 -73 -38 -62 -3 3 15 90 24 115
11 32 22 -7 14 -53z m183 24 c-8 -12 -9 -20 -2 -22 13 -4 -8 -55 -26 -62 -9
-3 -10 5 -4 32 20 89 21 94 33 82 7 -7 7 -16 -1 -30z m-358 -9 c-4 -43 -20
-81 -35 -81 -6 0 -6 9 -1 23 5 12 9 25 9 30 0 4 3 21 7 37 10 44 25 37 20 -9z
m-250 -154 c0 -27 -6 -48 -18 -60 -10 -10 -21 -17 -23 -14 -4 4 11 86 21 116
9 24 20 1 20 -42z m171 1 c-3 -29 -13 -59 -21 -67 -13 -13 -15 -13 -15 -1 0
14 15 76 25 108 10 30 16 8 11 -40z m179 -3 c-4 -38 -21 -75 -35 -75 -13 0
-12 7 1 50 6 19 12 44 14 55 2 11 4 22 4 25 1 3 5 -1 10 -9 5 -7 7 -28 6 -46z
m-527 3 c-3 -38 -25 -84 -36 -73 -7 7 21 115 30 115 4 0 7 -19 6 -42z m699 7
c-4 -24 -2 -33 5 -29 6 4 3 -7 -8 -25 -31 -53 -44 -39 -26 29 17 65 38 83 29
25z m-77 -124 c0 -11 -4 -22 -10 -26 -5 -3 -6 -15 -1 -27 5 -15 2 -27 -11 -40
-27 -27 -31 -18 -17 33 6 24 13 51 14 59 2 8 4 16 4 18 1 1 6 2 11 2 6 0 10
-9 10 -19z m175 -34 c-4 -23 -15 -51 -26 -62 -19 -19 -19 -19 -10 13 6 18 10
35 11 37 9 50 14 64 22 59 5 -3 6 -24 3 -47z m-2180 -141 c0 -36 -20 -45 -35
-16 -15 27 -5 53 17 48 12 -2 18 -13 18 -32z m7 -91 c16 -14 41 -25 55 -25
l25 0 -35 -47 c-19 -27 -40 -65 -46 -85 -13 -40 -43 -68 -73 -68 -25 0 -84 55
-114 107 l-26 43 38 43 c22 24 54 65 72 91 l33 48 21 -41 c11 -22 33 -52 50
-66z m68 -1 c0 -8 -7 -14 -15 -14 -15 0 -21 21 -9 33 10 9 24 -2 24 -19z"/>
<path d="M1237 1880 c-22 -26 -47 -103 -47 -145 0 -32 -22 -23 -40 17 -11 24
-20 36 -20 28 0 -23 39 -82 52 -78 7 3 18 34 24 70 13 70 37 118 60 118 8 0
14 5 14 10 0 18 -18 10 -43 -20z"/>
<path d="M3715 1835 c4 -44 10 -82 13 -85 2 -3 2 29 -2 70 l-6 75 20 -25 c10
-14 22 -38 26 -53 3 -16 8 -26 11 -23 10 10 -18 74 -43 97 l-26 24 7 -80z"/>
<path d="M1263 1845 c0 -22 2 -30 4 -17 2 12 2 30 0 40 -3 9 -5 -1 -4 -23z"/>
<path d="M1105 1820 c-8 -16 -15 -37 -14 -47 0 -10 5 -3 11 16 7 26 12 31 19
20 6 -10 9 -7 9 14 0 35 -6 34 -25 -3z"/>
<path d="M3850 1809 c0 -39 -28 -99 -46 -99 -7 0 -14 15 -17 38 l-4 37 -1 -38
c-1 -26 3 -39 13 -43 23 -9 44 14 59 65 13 44 14 45 24 21 6 -14 11 -20 11
-13 1 18 -21 63 -31 63 -4 0 -8 -14 -8 -31z"/>
<path d="M3893 1725 c0 -22 2 -30 4 -17 2 12 2 30 0 40 -3 9 -5 -1 -4 -23z"/>
<path d="M1081 1699 c1 -30 5 -65 9 -79 4 -14 5 8 2 50 -6 89 -12 106 -11 29z"/>
<path d="M3707 1709 c-4 -20 -16 -44 -27 -54 -24 -22 -27 -77 -5 -95 20 -17
19 -33 -5 -55 -19 -17 -20 -17 -29 9 -16 41 -45 30 -49 -19 -1 -20 9 -46 32
-80 19 -27 38 -62 41 -77 7 -27 5 -28 -28 -28 -35 0 -36 1 -40 43 -2 23 -2 15
0 -18 3 -33 6 -78 7 -100 l1 -40 -80 -6 -80 -5 75 -2 c41 -1 81 2 89 7 9 6 12
24 10 57 -4 45 -2 49 20 52 13 2 41 -6 62 -17 35 -20 41 -20 71 -8 37 16 65
45 96 100 27 47 28 64 2 85 l-21 17 26 74 c14 41 24 88 24 105 -2 26 -2 27 -5
6 -6 -39 -47 -170 -53 -170 -3 0 -17 17 -30 38 -34 51 -92 112 -108 112 -16 0
-16 0 3 38 8 18 14 40 12 50 -2 10 -7 2 -11 -19z m13 -111 c0 -13 -4 -29 -9
-37 -8 -12 -12 -12 -25 -2 -19 16 -20 33 -4 49 19 19 38 14 38 -10z m69 -55
c21 -32 51 -69 65 -82 14 -14 26 -31 26 -38 0 -31 -68 -120 -105 -137 -36 -17
-38 -17 -63 1 -14 10 -31 36 -38 57 -8 21 -27 56 -44 79 l-31 42 30 7 c33 9
88 67 97 103 3 14 10 25 15 25 4 0 26 -26 48 -57z m-158 -56 c-15 -15 -30 1
-24 24 6 21 7 21 20 4 8 -12 9 -23 4 -28z"/>
<path d="M2372 1544 c-15 -10 -22 -25 -22 -48 0 -40 21 -60 55 -54 21 4 25 1
25 -19 0 -28 -24 -40 -45 -23 -8 6 -19 9 -25 5 -20 -12 10 -35 47 -35 30 0 36
5 50 37 20 48 12 112 -17 135 -27 22 -39 22 -68 2z m61 -34 c7 -26 -16 -55
-37 -47 -16 6 -22 47 -9 60 13 14 41 6 46 -13z"/>
<path d="M2510 1542 c-16 -13 -24 -32 -27 -68 -5 -65 12 -98 55 -102 43 -4 62
12 62 54 0 39 -31 67 -67 58 -21 -6 -22 -4 -14 17 7 20 15 24 47 21 l39 -2
-24 20 c-29 25 -43 25 -71 2z m60 -119 c0 -31 -29 -42 -46 -18 -18 24 -17 30
2 50 21 20 44 3 44 -32z"/>
<path d="M2645 1535 c-20 -19 -25 -34 -25 -72 0 -61 21 -93 60 -93 31 0 60 30
60 62 0 30 -37 59 -65 52 -18 -4 -25 -2 -25 7 0 30 17 41 49 34 35 -7 43 8 12
25 -29 15 -39 13 -66 -15z m60 -86 c4 -5 4 -21 1 -35 -5 -19 -12 -25 -29 -22
-37 5 -36 68 2 68 11 0 23 -5 26 -11z"/>
<path d="M2296 1535 c-3 -8 -12 -15 -21 -15 -8 0 -15 -4 -15 -10 0 -5 9 -10
20 -10 18 0 20 -7 20 -65 0 -51 3 -65 15 -65 12 0 15 17 15 90 0 70 -3 90 -14
90 -8 0 -16 -7 -20 -15z"/>
<path d="M3508 1506 c-48 -14 -52 -20 -38 -46 10 -18 9 -24 -1 -31 -11 -7 -11
-9 2 -9 21 0 43 26 36 43 -8 21 5 34 43 45 19 6 26 10 15 10 -11 0 -37 -5 -57
-12z m-8 -46 c0 -5 -4 -10 -10 -10 -5 0 -10 5 -10 10 0 6 5 10 10 10 6 0 10
-4 10 -10z"/>
<path d="M1473 1503 c4 -3 -2 -12 -13 -20 -11 -8 -28 -43 -39 -80 -28 -91 -19
-92 10 -1 20 61 27 72 44 70 49 -8 79 -11 62 -6 -9 3 -14 10 -11 16 4 6 0 14
-7 19 -16 10 -56 12 -46 2z m37 -23 c0 -5 -2 -10 -4 -10 -3 0 -8 5 -11 10 -3
6 -1 10 4 10 6 0 11 -4 11 -10z"/>
<path d="M3537 1470 c12 -5 29 -22 37 -37 8 -15 15 -23 16 -17 0 19 -41 64
-58 63 -13 0 -11 -3 5 -9z"/>
<path d="M1615 1450 c33 -4 78 -10 100 -13 34 -5 33 -4 -10 7 -27 8 -72 14
-100 14 l-50 -1 60 -7z"/>
<path d="M1855 1396 c55 -18 149 -52 208 -75 116 -45 246 -81 287 -80 14 0
-13 9 -60 19 -47 10 -128 34 -180 53 -246 91 -287 105 -320 111 -19 3 10 -9
65 -28z"/>
<path d="M3413 1413 c9 -2 23 -2 30 0 6 3 -1 5 -18 5 -16 0 -22 -2 -12 -5z"/>
<path d="M1487 1403 c-3 -5 -9 -33 -13 -62 -7 -51 -6 -53 16 -49 15 2 26 12
30 28 19 71 20 81 11 76 -5 -3 -12 -24 -16 -46 -6 -38 -20 -58 -32 -46 -3 3 0
26 6 52 11 43 10 66 -2 47z"/>
<path d="M3287 1403 c18 -2 50 -2 70 0 21 2 7 4 -32 4 -38 0 -55 -2 -38 -4z"/>
<path d="M3020 1344 c-140 -54 -272 -92 -335 -95 -24 -1 -25 -3 -7 -6 41 -8
173 26 321 83 80 31 169 60 196 64 49 7 49 8 10 9 -26 0 -89 -18 -185 -55z"/>
<path d="M1561 1346 c-15 -61 -12 -91 4 -41 11 32 14 35 14 15 1 -29 16 -56
24 -44 3 5 8 32 11 59 l6 50 -14 -35 -14 -35 -1 38 c-1 50 -16 47 -30 -7z"/>
<path d="M3536 1358 c-6 -22 -7 -23 -21 -4 -25 33 -23 14 4 -46 l26 -57 1 65
c1 35 1 64 -1 64 -1 0 -6 -10 -9 -22z"/>
<path d="M1656 1353 c-12 -40 -17 -98 -8 -83 11 17 26 100 19 100 -3 0 -8 -8
-11 -17z"/>
<path d="M3440 1359 c-14 -4 -20 -7 -14 -8 7 -1 15 -21 18 -46 4 -24 11 -47
17 -50 11 -7 11 -3 0 52 -6 29 -5 44 3 46 22 8 0 14 -24 6z"/>
<path d="M1703 1297 l-1 -62 13 50 c8 27 19 51 25 53 15 5 2 22 -18 22 -14 0
-17 -11 -19 -63z"/>
<path d="M3385 1306 c4 -57 10 -75 20 -64 3 3 -1 32 -9 64 l-15 59 4 -59z"/>
<path d="M1774 1292 c0 -33 4 -58 8 -56 5 3 8 13 8 22 0 9 9 32 20 50 11 17
16 32 11 32 -5 0 -12 -8 -16 -17 -6 -16 -8 -15 -19 6 -12 21 -13 17 -12 -37z"/>
<path d="M3302 1341 c-16 -10 -7 -97 11 -108 6 -4 8 4 5 21 -6 30 8 35 17 6 3
-11 11 -20 17 -20 6 0 7 7 2 18 -4 9 -7 28 -6 42 0 24 -14 50 -27 50 -3 0 -12
-4 -19 -9z m28 -27 c0 -8 -4 -14 -9 -14 -11 0 -22 26 -14 34 9 9 23 -3 23 -20z"/>
<path d="M3228 1333 c-21 -5 -22 -18 -7 -79 11 -44 22 -52 49 -34 12 8 11 10
-6 10 -28 0 -39 29 -18 45 15 11 15 12 -5 18 -24 6 -29 27 -6 27 8 0 15 5 15
10 0 6 -1 9 -2 9 -2 -1 -11 -3 -20 -6z"/>
<path d="M1375 1309 c-11 -4 -14 -8 -7 -8 6 -1 12 -9 13 -18 0 -13 3 -11 10 6
11 29 10 31 -16 20z"/>
<path d="M3141 1311 c-11 -7 -11 -17 -1 -60 6 -28 16 -54 21 -57 6 -3 7 5 3
20 -4 17 -1 31 10 41 10 11 13 22 7 37 -9 26 -21 31 -40 19z m29 -25 c0 -24
-17 -28 -23 -6 -3 13 0 20 9 20 8 0 14 -6 14 -14z"/>
<path d="M3067 1293 c-16 -15 -6 -52 18 -67 14 -9 25 -23 25 -31 0 -18 -16
-20 -23 -2 -3 7 -6 5 -6 -5 -1 -21 38 -26 40 -5 3 28 -4 43 -27 60 -26 21 -33
42 -9 33 9 -3 15 0 15 9 0 15 -21 20 -33 8z"/>
<path d="M2036 1204 c-9 -37 -15 -69 -12 -72 7 -6 11 5 30 81 8 31 11 57 6 57
-4 0 -15 -30 -24 -66z"/>
<path d="M2983 1255 c-8 -22 17 -106 34 -112 29 -11 37 13 24 72 -10 44 -16
55 -32 55 -11 0 -22 -7 -26 -15z m46 -50 c10 -35 1 -70 -12 -48 -11 18 -26 87
-20 95 8 15 20 -3 32 -47z"/>
<path d="M1900 1252 c0 -5 9 -12 21 -15 13 -3 19 -1 16 6 -5 15 -37 22 -37 9z"/>
<path d="M2098 1250 c-13 -29 -28 -95 -27 -120 0 -20 3 -17 14 15 l13 40 1
-37 c2 -58 18 -54 31 9 7 32 15 64 18 72 3 8 1 12 -5 8 -6 -4 -14 -24 -19 -44
l-8 -38 -6 55 c-3 30 -9 48 -12 40z"/>
<path d="M1380 1242 c0 -15 49 -29 163 -47 141 -22 287 -58 401 -99 55 -20
101 -34 103 -32 7 6 -169 67 -267 92 -52 14 -157 36 -233 49 -76 13 -145 29
-153 36 -9 7 -14 8 -14 1z"/>
<path d="M2442 1233 c37 -2 100 -2 140 0 40 1 10 3 -67 3 -77 0 -110 -1 -73
-3z"/>
<path d="M2904 1225 c-7 -18 24 -115 37 -115 6 0 5 9 -1 21 -17 30 -4 36 19 8
11 -13 20 -19 21 -13 0 5 -5 15 -11 21 -7 7 -13 25 -14 40 -1 15 -3 34 -3 41
-3 17 -41 15 -48 -3z m36 -25 c0 -11 -4 -20 -9 -20 -5 0 -11 9 -14 20 -3 13 0
20 9 20 8 0 14 -9 14 -20z"/>
<path d="M2177 1206 c-4 -9 -9 -38 -13 -66 -5 -41 -4 -51 10 -56 27 -10 38 10
40 72 1 47 -2 59 -15 62 -9 1 -19 -4 -22 -12z m28 -49 c-11 -56 -16 -67 -26
-61 -9 5 -6 38 7 87 9 30 25 7 19 -26z"/>
<path d="M2825 1200 c-7 -12 22 -107 36 -115 12 -8 11 6 -1 25 -6 10 -4 20 7
32 21 23 10 68 -17 68 -10 0 -22 -5 -25 -10z m40 -28 c0 -18 -20 -15 -23 4 -3
10 1 15 10 12 7 -3 13 -10 13 -16z"/>
<path d="M2257 1186 c-4 -9 -9 -38 -13 -64 -5 -41 -3 -50 11 -56 25 -9 33 0
40 47 3 23 9 50 12 61 3 11 1 16 -5 12 -6 -3 -13 -29 -17 -56 -4 -27 -11 -52
-15 -55 -17 -10 -20 14 -9 65 11 49 8 77 -4 46z"/>
<path d="M2341 1167 c-16 -16 -14 -52 4 -67 16 -13 21 -40 7 -40 -4 0 -14 6
-21 13 -11 10 -13 9 -9 -3 3 -8 14 -16 26 -18 27 -4 30 27 6 63 -18 28 -10 53
12 34 11 -9 14 -8 14 4 0 19 -24 29 -39 14z"/>
<path d="M3365 1170 c-27 -7 -27 -8 -5 -8 14 0 39 4 55 8 27 7 27 8 5 8 -14 0
-38 -4 -55 -8z"/>
<path d="M2400 1161 c0 -6 5 -11 11 -11 7 0 8 -18 4 -55 -5 -38 -4 -55 4 -55
6 0 11 19 11 46 0 33 5 51 18 60 15 12 16 13 0 14 -9 0 -23 3 -32 6 -9 3 -16
1 -16 -5z"/>
<path d="M2481 1098 c1 -35 4 -53 6 -40 6 29 21 28 29 -3 10 -42 19 -28 20 33
2 58 -6 72 -38 72 -15 0 -18 -9 -17 -62z m39 22 c0 -11 -4 -20 -10 -20 -5 0
-10 9 -10 20 0 11 5 20 10 20 6 0 10 -9 10 -20z"/>
<path d="M2565 1143 c4 -10 10 -39 12 -65 6 -52 23 -66 23 -19 0 16 7 45 15
65 16 39 5 51 -13 14 l-11 -23 -7 23 c-3 12 -11 22 -16 22 -6 0 -7 -8 -3 -17z"/>
<path d="M3177 1125 c-66 -19 -126 -40 -135 -46 -15 -9 -14 -10 3 -4 26 9 244
71 270 78 l20 5 -20 0 c-11 1 -73 -14 -138 -33z"/>
<path d="M2710 1120 c0 -5 9 -10 20 -10 11 0 20 5 20 10 0 6 -9 10 -20 10 -11
0 -20 -4 -20 -10z"/>
<path d="M2925 1044 c-38 -13 -55 -21 -36 -18 41 7 142 43 121 42 -8 0 -46
-11 -85 -24z"/>
<path d="M2085 1045 c17 -8 37 -14 45 -14 8 0 -1 7 -20 14 -46 18 -64 17 -25
0z"/>
<path d="M2185 1015 c22 -8 49 -13 60 -13 11 0 -2 6 -30 14 -63 17 -84 16 -30
-1z"/>
<path d="M2828 1013 c7 -3 16 -2 19 1 4 3 -2 6 -13 5 -11 0 -14 -3 -6 -6z"/>
<path d="M2750 1000 c-20 -6 -21 -8 -5 -8 11 0 31 4 45 8 20 6 21 8 5 8 -11 0
-31 -4 -45 -8z"/>
<path d="M2278 993 c6 -2 18 -2 25 0 6 3 1 5 -13 5 -14 0 -19 -2 -12 -5z"/>
<path d="M2333 983 c9 -2 23 -2 30 0 6 3 -1 5 -18 5 -16 0 -22 -2 -12 -5z"/>
<path d="M2664 984 c-7 -3 -56 -9 -110 -14 l-99 -9 100 5 c93 4 207 22 145 22
-14 0 -30 -2 -36 -4z"/>
<path d="M2398 973 c12 -2 30 -2 40 0 9 3 -1 5 -23 4 -22 0 -30 -2 -17 -4z"/>
<path d="M3165 3774 c50 -18 135 -75 135 -91 0 -21 -132 -134 -149 -128 -37
14 -72 17 -100 7 -27 -10 -35 -8 -61 14 -36 31 -37 36 -5 70 14 15 24 32 22
38 -6 17 -134 77 -175 83 -45 6 -65 -12 -64 -59 1 -30 46 -130 78 -172 14 -19
15 -19 47 11 l32 32 30 -24 29 -24 -21 -23 c-12 -13 -29 -40 -38 -61 -8 -21
-27 -43 -40 -49 -38 -17 -30 -27 26 -34 l51 -7 -87 -87 c-77 -77 -96 -110 -65
-110 4 0 56 45 115 100 l106 100 64 0 63 0 103 -97 c56 -54 109 -98 117 -98
35 0 18 27 -68 107 -49 46 -87 88 -83 91 3 4 20 7 37 7 17 0 37 4 45 9 11 7 7
12 -16 25 -20 10 -40 35 -58 72 l-28 57 64 58 c35 32 69 57 74 55 6 -1 27 -35
48 -75 l37 -72 0 43 c0 25 -11 66 -25 97 -20 42 -23 57 -14 68 19 22 -5 41
-31 25 -13 -8 -21 -8 -26 -1 -15 24 -110 59 -159 58 l-50 0 40 -15z"/>
<path d="M1700 3446 c0 -2 7 -17 15 -32 l15 -29 0 33 c0 22 -5 32 -15 32 -8 0
-15 -2 -15 -4z"/>
<path d="M2170 3442 c0 -4 4 -12 9 -17 5 -6 11 -23 14 -40 3 -21 4 -16 6 18 1
36 -3 47 -14 47 -8 0 -15 -4 -15 -8z"/>
<path d="M2202 3300 c0 -14 2 -19 5 -12 2 6 2 18 0 25 -3 6 -5 1 -5 -13z"/>
<path d="M1721 3244 c0 -11 3 -14 6 -6 3 7 2 16 -1 19 -3 4 -6 -2 -5 -13z"/>
<path d="M1811 2549 c-11 -12 -21 -33 -21 -46 0 -21 -10 -28 -33 -24 -5 1 -4
-6 1 -16 7 -12 5 -24 -5 -40 -12 -19 -13 -26 -3 -38 7 -8 10 -15 6 -15 -3 0 1
-16 9 -36 26 -62 1 -72 -56 -21 -45 41 -69 79 -69 112 0 46 31 25 69 -47 36
-68 61 -101 61 -82 0 6 -9 19 -19 28 -11 10 -23 31 -26 46 -3 16 -13 34 -21
41 -12 9 -14 25 -10 63 5 48 5 49 -7 20 -12 -31 -37 -36 -37 -8 0 9 5 12 12 8
7 -4 8 -3 4 4 -13 21 -28 13 -24 -13 4 -20 1 -25 -14 -25 -16 0 -17 -3 -8 -20
11 -21 8 -23 -28 -20 -21 1 -22 -1 -12 -19 6 -12 13 -21 16 -21 3 0 2 5 -1 10
-3 6 2 10 13 10 11 0 27 -15 40 -39 13 -22 35 -49 50 -60 32 -24 14 -27 -30
-5 -29 15 -31 15 -23 -2 27 -69 83 -282 101 -391 10 -56 21 -108 25 -115 11
-18 189 -24 212 -6 10 8 22 40 30 83 l13 70 27 -42 c15 -24 27 -47 27 -52 0
-17 61 -61 84 -61 26 0 66 34 66 56 0 28 -20 54 -101 131 -43 42 -79 83 -79
92 0 9 15 71 34 138 l33 121 -24 -15 c-15 -10 -23 -11 -23 -4 0 7 -9 6 -24 -4
-14 -9 -37 -15 -53 -13 -28 3 -28 3 -8 21 50 44 82 65 105 67 41 4 52 1 44
-12 -4 -7 -3 -8 4 -4 17 10 15 26 -4 26 -12 0 -15 6 -10 26 6 24 5 26 -19 20
-22 -6 -25 -3 -26 21 0 16 -3 22 -6 13 -10 -25 -43 -41 -43 -21 0 5 8 12 18
14 16 4 16 5 0 6 -10 0 -18 8 -18 16 0 13 -2 14 -14 3 -8 -7 -10 -14 -5 -16
15 -6 10 -38 -9 -55 -26 -24 -35 -21 -28 8 4 14 2 25 -3 25 -5 0 -11 10 -13
23 -2 12 -5 -5 -6 -37 -1 -65 -29 -146 -50 -146 -10 0 -12 8 -8 28 6 25 8 106
5 142 -2 25 9 71 22 86 7 8 7 14 1 14 -5 0 -16 -14 -24 -31 -13 -25 -16 -27
-20 -12 -9 32 -7 38 10 35 14 -2 14 -1 3 7 -8 5 -21 7 -29 4 -8 -3 -17 0 -22
7 -5 9 -13 6 -29 -11z m58 -51 c11 -21 17 -38 12 -38 -5 0 -14 12 -19 28 -6
15 -11 20 -11 11 -1 -9 8 -27 18 -41 17 -21 19 -35 14 -101 l-6 -77 -33 0
c-38 0 -37 -6 -35 135 0 78 17 144 32 128 4 -4 16 -25 28 -45z m-74 -91 c5
-52 -10 -75 -17 -26 -5 31 1 83 8 76 2 -2 6 -24 9 -50z m275 -6 c0 -12 -23
-37 -60 -65 -68 -52 -78 -56 -56 -24 9 12 16 28 16 34 0 6 12 25 28 42 31 36
72 43 72 13z m44 4 c-6 -16 -24 -21 -24 -7 0 11 11 22 21 22 5 0 6 -7 3 -15z
m-17 -427 c43 -46 103 -126 103 -139 0 -16 -40 -19 -67 -5 -50 25 -109 122
-99 162 4 13 10 24 14 24 4 0 26 -19 49 -42z"/>
<path d="M1943 2525 c0 -22 2 -30 4 -17 2 12 2 30 0 40 -3 9 -5 -1 -4 -23z"/>
<path d="M1610 2346 c0 -2 8 -10 18 -17 15 -13 16 -12 3 4 -13 16 -21 21 -21
13z"/>
<path d="M1082 4232 l-22 -17 95 -117 c52 -64 99 -119 103 -122 4 -2 18 4 31
13 l24 18 -99 121 c-55 66 -101 121 -104 121 -3 0 -15 -7 -28 -17z"/>
<path d="M3796 4116 c-100 -108 -105 -114 -87 -130 9 -9 20 -16 23 -16 4 0 37
32 74 71 38 39 70 66 72 61 2 -6 -6 -61 -18 -123 l-21 -112 21 -21 20 -21 88
94 c131 143 129 139 105 162 -20 20 -20 20 -82 -50 -35 -39 -66 -71 -71 -71
-4 0 3 52 15 115 l22 115 -22 20 c-12 11 -24 20 -27 20 -3 0 -53 -51 -112
-114z"/>
<path d="M964 4129 l-21 -21 53 -96 c30 -54 54 -100 54 -104 0 -5 -47 16 -105
44 l-105 53 -22 -22 c-12 -13 -20 -24 -17 -27 9 -9 286 -136 295 -136 6 0 19
9 28 19 17 19 14 25 -59 165 -42 80 -78 146 -79 146 -1 0 -11 -9 -22 -21z"/>
<path d="M4081 3898 c-59 -29 -101 -95 -101 -160 0 -39 6 -54 31 -83 17 -19
42 -38 55 -41 18 -5 22 -10 14 -19 -7 -8 -5 -17 8 -29 18 -15 23 -13 86 34
l67 51 -38 49 c-21 27 -41 49 -44 50 -3 0 -13 -6 -23 -13 -16 -12 -16 -14 5
-41 18 -23 20 -30 8 -37 -37 -24 -101 8 -113 56 -15 59 53 134 129 142 37 5
44 2 69 -28 23 -27 27 -39 22 -68 -3 -24 0 -43 10 -56 13 -18 15 -18 32 -2 27
27 21 97 -12 147 -46 70 -124 88 -205 48z"/>
<path d="M704 3831 c-72 -44 -96 -145 -51 -212 41 -61 137 -109 191 -95 39 10
103 72 117 113 23 70 -10 135 -94 183 -61 35 -117 39 -163 11z m137 -70 c27
-17 51 -41 59 -61 12 -29 12 -37 -6 -69 -37 -68 -101 -67 -172 5 -40 39 -44
48 -38 76 7 41 48 78 85 78 15 0 47 -13 72 -29z"/>
<path d="M4296 3573 c-91 -47 -110 -61 -122 -90 -19 -45 -4 -101 40 -148 48
-50 81 -48 209 16 56 28 104 53 106 55 2 2 -2 17 -9 33 l-12 30 -102 -54 c-57
-30 -112 -55 -124 -55 -23 0 -62 44 -62 70 0 26 37 54 137 104 90 45 92 47 81
71 -6 14 -16 25 -22 25 -6 -1 -60 -26 -120 -57z"/>
<path d="M516 3509 c-16 -10 -96 -164 -96 -185 0 -7 210 -107 271 -129 10 -4
19 3 27 20 11 24 10 26 -43 52 -30 15 -55 31 -55 35 0 18 42 89 55 94 7 3 35
-4 61 -15 25 -12 48 -21 49 -21 2 0 8 13 13 29 10 29 9 30 -44 51 -33 14 -63
20 -79 16 -18 -5 -25 -2 -25 8 0 44 -86 72 -134 45z m75 -49 c24 -13 24 -47 2
-97 -10 -21 -19 -40 -20 -42 -3 -4 -83 30 -83 35 0 10 36 82 49 97 16 20 25
21 52 7z"/>
<path d="M4425 3253 c-77 -25 -141 -47 -143 -48 -5 -4 60 -208 69 -219 5 -6
16 -6 28 0 19 9 19 10 -5 84 -13 41 -24 79 -24 83 0 4 16 15 36 23 44 18 45
17 71 -73 18 -63 25 -71 53 -53 12 8 11 19 -9 80 -12 40 -21 73 -19 74 1 2 18
8 35 14 l33 11 24 -77 c23 -74 37 -91 63 -74 9 6 4 33 -20 112 -18 57 -37 104
-42 106 -6 1 -73 -18 -150 -43z"/>
<path d="M423 3193 c-36 -7 -67 -53 -87 -131 -10 -40 -17 -74 -15 -76 2 -2 71
-21 152 -43 l148 -41 10 25 c14 38 13 39 -47 52 -50 12 -55 15 -49 34 12 43
17 96 11 121 -10 40 -69 69 -123 59z m70 -74 c10 -16 3 -74 -12 -97 -7 -11
-16 -11 -50 -1 -46 14 -50 27 -26 85 13 31 18 35 46 32 18 -2 36 -10 42 -19z"/>
<path d="M4635 2969 c-4 -6 -4 -30 -1 -53 l7 -43 -131 -18 -130 -19 0 -27 c0
-15 3 -30 8 -32 4 -3 63 4 130 15 68 11 126 17 129 15 2 -3 7 -24 10 -47 5
-37 8 -41 32 -38 14 2 25 8 25 13 -27 195 -37 245 -55 245 -10 0 -21 -5 -24
-11z"/>
<path d="M473 2009 c-30 -11 -38 -45 -19 -74 20 -30 56 -33 79 -7 41 45 -2
103 -60 81z"/>
<path d="M4509 2006 c-30 -14 -36 -51 -13 -77 38 -42 107 -4 88 48 -11 32 -43
45 -75 29z"/>
<path d="M915 1232 c-16 -11 -47 -38 -67 -60 -32 -36 -38 -49 -38 -88 0 -57
27 -104 76 -135 71 -43 168 -5 222 87 71 121 -74 269 -193 196z m132 -64 c43
-40 22 -116 -43 -159 -44 -29 -87 -25 -118 12 -30 35 -32 49 -11 89 37 72 125
102 172 58z"/>
<path d="M3927 1212 c-10 -10 -17 -21 -17 -25 0 -3 50 -50 112 -103 l112 -97
44 49 c23 27 55 64 69 82 25 31 25 34 9 50 -17 16 -20 14 -71 -43 l-53 -59
-78 69 c-120 105 -108 98 -127 77z"/>
<path d="M3749 1044 l-26 -25 55 -147 c31 -81 57 -149 59 -151 2 -3 13 5 25
17 20 19 21 26 11 52 -10 28 -9 32 28 65 43 39 55 42 84 21 18 -12 23 -12 43
4 12 10 22 21 22 24 0 5 -71 48 -230 139 l-46 27 -25 -26z m131 -104 l24 -18
-30 -25 -29 -26 -22 47 c-31 66 -30 77 5 56 16 -9 39 -24 52 -34z"/>
<path d="M1137 923 l-88 -117 21 -20 22 -21 26 34 c61 79 51 76 107 31 28 -22
53 -40 57 -40 4 0 12 9 18 20 9 17 4 24 -40 57 -27 20 -50 40 -50 44 0 3 9 18
21 33 l21 26 59 -46 c49 -39 61 -45 74 -34 8 7 15 16 15 20 0 9 -155 130 -167
130 -4 0 -48 -53 -96 -117z"/>
<path d="M3490 856 c-47 -29 -84 -58 -83 -63 2 -9 139 -241 148 -251 4 -4 195
112 195 119 0 3 -6 13 -12 22 -12 15 -20 12 -86 -28 l-72 -45 -20 33 c-11 17
-20 35 -20 39 0 3 25 21 55 38 62 35 68 42 59 64 -9 22 -15 21 -81 -19 -32
-19 -61 -35 -64 -35 -5 0 -29 45 -29 55 0 3 30 23 66 46 44 28 63 46 60 56 -3
8 -6 17 -6 19 0 13 -35 -2 -110 -50z"/>
<path d="M1447 848 c-37 -61 -127 -227 -127 -235 0 -4 10 -14 21 -22 24 -15
25 -14 61 54 11 22 22 41 23 43 2 2 27 -9 57 -25 29 -15 56 -29 60 -31 4 -2
12 6 18 17 9 18 5 24 -45 52 -30 17 -55 35 -55 41 0 8 18 47 26 57 2 2 33 -14
70 -34 65 -36 68 -37 81 -19 12 16 11 20 -4 32 -22 16 -160 92 -167 92 -3 0
-12 -10 -19 -22z"/>
<path d="M1671 618 c-69 -162 -69 -166 -37 -174 15 -3 28 -5 30 -3 1 2 28 65
58 140 l56 137 -24 11 c-14 6 -26 11 -28 11 -2 0 -27 -55 -55 -122z"/>
<path d="M3204 726 c-62 -27 -84 -100 -45 -147 18 -22 27 -24 113 -24 l93 0 3
-27 c2 -18 -4 -31 -20 -42 -26 -18 -79 -21 -95 -5 -11 11 -63 2 -63 -10 0 -13
44 -48 68 -54 38 -9 118 20 146 54 32 37 33 77 5 113 -21 27 -24 27 -108 24
-93 -3 -111 3 -111 32 0 33 89 66 105 40 8 -13 36 -13 55 0 13 9 11 14 -13 35
-32 29 -83 33 -133 11z"/>
<path d="M1866 630 c-57 -51 -80 -146 -52 -215 32 -76 146 -101 205 -46 37 35
39 49 7 57 -17 4 -31 -1 -45 -15 -27 -27 -61 -27 -95 0 -62 49 -10 199 69 199
33 0 58 -20 69 -56 6 -20 54 -40 66 -28 2 3 -2 24 -10 47 -31 87 -144 118
-214 57z"/>
<path d="M2180 591 c0 -6 -9 -72 -20 -147 -11 -75 -19 -138 -18 -140 2 -1 15
-5 31 -9 19 -5 27 -3 27 6 0 8 9 72 20 144 25 165 25 155 -10 155 -16 0 -30
-4 -30 -9z"/>
<path d="M2670 585 c0 -12 42 -300 44 -302 1 -1 44 4 96 12 52 8 98 15 103 15
4 0 7 12 7 26 0 26 0 26 -57 19 -32 -3 -68 -9 -79 -12 -23 -5 -21 -14 -50 205
-6 38 -9 42 -35 42 -16 0 -29 -2 -29 -5z"/>
<path d="M2372 443 c-64 -174 -63 -167 -30 -171 23 -3 30 2 42 33 l15 36 58
-3 c55 -3 58 -4 67 -35 8 -29 13 -33 42 -33 l32 0 -51 155 -52 155 -36 0 -37
0 -50 -137z m106 11 c18 -61 16 -64 -27 -64 l-40 0 22 60 c12 32 24 56 28 52
3 -4 11 -26 17 -48z"/>
</g>
</svg>
